<?xml version="1.0" encoding="UTF-8"?>
<svg id="LinkedIn" xmlns="http://www.w3.org/2000/svg" viewBox="0 0 300 300">
  <defs>
    <style>
      .cls-1, .cls-2 {
        fill: #fff;
      }

      .cls-2 {
        fill-rule: evenodd;
      }
    </style>
  </defs>
  <path class="cls-2" d="m30.3,58.29c0-15.63,12.67-28.29,28.29-28.29s28.29,12.67,28.29,28.29-12.67,28.29-28.29,28.29-28.29-12.67-28.29-28.29Z"/>
  <rect class="cls-1" x="33.93" y="110.4" width="49.33" height="159.59"/>
  <path class="cls-2" d="m263.65,141.97c-3.37-7.3-7.03-14.28-13.44-19.44-6.24-5.04-13.53-9.76-21.25-12.13-8.76-2.69-15.26-3.22-24.39-2.83-18.13.75-38.2,11.14-48.4,26.04v-23.21h-45.34v159.6h48.13v-85.65c0-.9.23-15.37,10.88-24.98,13.22-11.91,51.63-12.58,51.63,23.82l-.12,86.81h48.36v-103.02c0-8.55-2.5-17.32-6.05-25.01Z"/>
</svg>