<?xml version="1.0" encoding="UTF-8"?>
<svg id="Instagram" xmlns="http://www.w3.org/2000/svg" viewBox="0 0 300 300">
  <defs>
    <style>
      .cls-1 {
        fill: #fff;
      }
    </style>
  </defs>
  <path class="cls-1" d="m150,51.62c32.04,0,35.84.12,48.49.7,11.7.53,18.05,2.49,22.28,4.13,5.6,2.18,9.6,4.78,13.8,8.98,4.2,4.2,6.8,8.2,8.98,13.8,1.64,4.23,3.6,10.58,4.13,22.28.58,12.65.7,16.45.7,48.49s-.12,35.84-.7,48.49c-.53,11.7-2.49,18.05-4.13,22.28-2.18,5.6-4.78,9.6-8.98,13.8-4.2,4.2-8.2,6.8-13.8,8.98-4.23,1.64-10.58,3.6-22.28,4.13-12.65.58-16.45.7-48.49.7s-35.84-.12-48.49-.7c-11.7-.53-18.05-2.49-22.28-4.13-5.6-2.18-9.6-4.78-13.8-8.98-4.2-4.2-6.8-8.2-8.98-13.8-1.64-4.23-3.6-10.58-4.13-22.28-.58-12.65-.7-16.45-.7-48.49s.12-35.84.7-48.49c.53-11.7,2.49-18.05,4.13-22.28,2.18-5.6,4.78-9.6,8.98-13.8,4.2-4.2,8.2-6.8,13.8-8.98,4.23-1.64,10.58-3.6,22.28-4.13,12.65-.58,16.45-.7,48.49-.7m0-21.62c-32.59,0-36.68.14-49.48.72-12.77.58-21.5,2.61-29.13,5.58-7.89,3.07-14.58,7.17-21.25,13.84-6.67,6.67-10.77,13.36-13.84,21.25-2.97,7.63-5,16.36-5.58,29.13-.58,12.8-.72,16.89-.72,49.48s.14,36.68.72,49.48c.58,12.77,2.61,21.5,5.58,29.13,3.07,7.89,7.17,14.58,13.84,21.25,6.67,6.67,13.36,10.77,21.25,13.84,7.63,2.97,16.36,5,29.13,5.58,12.8.58,16.89.72,49.48.72s36.68-.14,49.48-.72c12.77-.58,21.5-2.61,29.13-5.58,7.89-3.07,14.58-7.17,21.25-13.84,6.67-6.67,10.77-13.36,13.84-21.25,2.97-7.63,5-16.36,5.58-29.13.58-12.8.72-16.89.72-49.48s-.14-36.68-.72-49.48c-.58-12.77-2.61-21.5-5.58-29.13-3.07-7.89-7.17-14.58-13.84-21.25-6.67-6.67-13.36-10.77-21.25-13.84-7.63-2.97-16.36-5-29.13-5.58-12.8-.58-16.89-.72-49.48-.72h0Z"/>
  <path class="cls-1" d="m150,88.38c-34.03,0-61.62,27.59-61.62,61.62s27.59,61.62,61.62,61.62,61.62-27.59,61.62-61.62-27.59-61.62-61.62-61.62Zm0,101.62c-22.09,0-40-17.91-40-40s17.91-40,40-40,40,17.91,40,40-17.91,40-40,40Z"/>
  <circle class="cls-1" cx="214.06" cy="85.94" r="14.4"/>
</svg>