<?xml version="1.0" encoding="UTF-8"?>
<svg id="Close_Info" data-name="Close Info" xmlns="http://www.w3.org/2000/svg" viewBox="0 0 300 300">
  <defs>
    <style>
      .cls-1 {
        fill: #fff;
      }
    </style>
  </defs>
  <path class="cls-1" d="m55.82,60.85l145.92,183.68c.79.93,1.95,1.47,3.17,1.47h36.1c3.54,0,5.46-4.15,3.17-6.85L98.26,55.47c-.79-.93-1.95-1.47-3.17-1.47h-36.1c-3.54,0-5.46,4.15-3.17,6.85Z"/>
  <path class="cls-1" d="m244.18,60.85L98.26,244.53c-.79.93-1.95,1.47-3.17,1.47h-36.1c-3.54,0-5.46-4.15-3.17-6.85L201.74,55.47c.79-.93,1.95-1.47,3.17-1.47h36.1c3.54,0,5.46,4.15,3.17,6.85Z"/>
</svg>