<?xml version="1.0" encoding="UTF-8"?>
<svg id="LinkedIn" xmlns="http://www.w3.org/2000/svg" viewBox="0 0 300 300">
  <defs>
    <style>
      .cls-1, .cls-2 {
        fill: #fff;
      }

      .cls-2 {
        fill-rule: evenodd;
      }
    </style>
  </defs>
  <path class="cls-2" d="m36.29,62.88c0-14.85,12.03-26.88,26.88-26.88s26.88,12.03,26.88,26.88-12.03,26.88-26.88,26.88-26.88-12.03-26.88-26.88Z"/>
  <rect class="cls-1" x="39.73" y="112.38" width="46.86" height="151.61"/>
  <path class="cls-2" d="m257.96,142.37c-3.2-6.93-6.68-13.56-12.77-18.47-5.93-4.79-12.85-9.27-20.19-11.52-8.32-2.55-14.5-3.06-23.17-2.69-17.22.71-36.29,10.59-45.98,24.74v-22.05h-43.07v151.62h45.72v-81.37c0-.86.22-14.61,10.33-23.73,12.56-11.31,49.05-11.95,49.05,22.63l-.12,82.47h45.95v-97.87c0-8.12-2.37-16.46-5.75-23.76Z"/>
</svg>