<?xml version="1.0" encoding="UTF-8"?>
<svg id="Info" xmlns="http://www.w3.org/2000/svg" viewBox="0 0 300 300">
  <defs>
    <style>
      .cls-1 {
        fill: #fff;
      }
    </style>
  </defs>
  <circle class="cls-1" cx="163.29" cy="57.49" r="27.49"/>
  <path class="cls-1" d="m109.9,113.89l68.26-6.94c1.65-.17,2.99,1.31,2.67,2.93l-25.09,127.52c-.76,3.89,2.85,7.2,6.66,6.11,8.13-2.32,14.76-10.04,21.5-18.66.89-1.14,2.55-1.27,3.61-.3l5.33,4.98c.93.85,1.07,2.27.32,3.28-11.11,14.85-25.18,25.96-42.53,32.93-20.81,7.72-33.21,4.84-37.77-7.93-1.54-4.31-1.77-8.98-.92-13.48l20.63-108.82c1.01-5.31-3.16-10.19-8.56-10.03l-15.12.44c-1.57.05-2.79-1.37-2.5-2.92l1.33-7.1c.2-1.08,1.09-1.89,2.18-2Z"/>
</svg>